<svg width="24" height="24" viewBox="0 0 24 24" fill="none" xmlns="http://www.w3.org/2000/svg">
<path d="M18.3284 7.28613H10.2844C10.0307 7.28679 9.7796 7.33746 9.5455 7.43524C9.31139 7.53303 9.09887 7.67601 8.92007 7.85601C8.74128 8.03601 8.59973 8.2495 8.50353 8.48425C8.40732 8.71901 8.35834 8.97043 8.35939 9.22413V19.3121C8.35939 20.3821 9.22139 21.2501 10.2844 21.2501H18.3284C18.5821 21.2495 18.8332 21.1988 19.0673 21.101C19.3014 21.0032 19.5139 20.8603 19.6927 20.6803C19.8715 20.5003 20.0131 20.2868 20.1093 20.052C20.2055 19.8173 20.2544 19.5658 20.2534 19.3121V9.22413C20.2534 8.15413 19.3914 7.28613 18.3284 7.28613Z" stroke="black" stroke-width="1.5" stroke-linecap="round" stroke-linejoin="round"/>
<path d="M15.644 7.286V4.688C15.644 4.174 15.441 3.681 15.08 3.318C14.9018 3.13829 14.6898 2.99559 14.4562 2.89811C14.2226 2.80064 13.9721 2.7503 13.719 2.75H5.675C5.165 2.75 4.675 2.954 4.315 3.318C3.95372 3.68252 3.75071 4.17478 3.75 4.688V14.776C3.75 15.29 3.953 15.783 4.314 16.146C4.675 16.509 5.164 16.714 5.675 16.714H8.36" stroke="black" stroke-width="1.5" stroke-linecap="round" stroke-linejoin="round"/>
</svg>
