<svg width="31" height="24" viewBox="0 0 31 24" fill="none" xmlns="http://www.w3.org/2000/svg">
<path d="M8 6.2C8 5.08 8 4.52 8.2725 4.092C8.51218 3.71569 8.89462 3.40974 9.365 3.218C9.9 3 10.6 3 12 3H19C20.4 3 21.1 3 21.635 3.218C22.1054 3.40974 22.4878 3.71569 22.7275 4.092C23 4.52 23 5.08 23 6.2V19.505C23 19.991 23 20.234 22.8738 20.367C22.8192 20.4248 22.7496 20.4725 22.6697 20.5067C22.5899 20.5409 22.5017 20.5608 22.4112 20.565C22.2025 20.575 21.95 20.44 21.445 20.171L15.5 17L9.555 20.17C9.05 20.44 8.7975 20.575 8.5875 20.565C8.49729 20.5606 8.40935 20.5407 8.32972 20.5065C8.25009 20.4723 8.18067 20.4247 8.12625 20.367C8 20.234 8 19.991 8 19.505V6.2Z" stroke="black" stroke-width="1.5" stroke-linecap="round" stroke-linejoin="round"/>
</svg>
