<svg width="18" height="17" viewBox="0 0 18 17" fill="none" xmlns="http://www.w3.org/2000/svg">
<path d="M9.51673 14.6405C9.19894 14.4487 8.80106 14.4487 8.48326 14.6405L4.849 16.834C4.09168 17.2911 3.15745 16.6121 3.35841 15.7506L4.32287 11.6164C4.4072 11.2549 4.28436 10.8764 4.00379 10.6334L0.791394 7.85048C0.122796 7.27127 0.480205 6.17301 1.36163 6.09823L5.58913 5.73957C5.95871 5.70822 6.28058 5.47488 6.42532 5.13338L8.07928 1.23096C8.42387 0.417936 9.57613 0.417934 9.92072 1.23096L11.5747 5.13338C11.7194 5.47488 12.0413 5.70822 12.4109 5.73957L16.6384 6.09823C17.5198 6.17301 17.8772 7.27127 17.2086 7.85048L13.9962 10.6334C13.7156 10.8764 13.5928 11.2549 13.6771 11.6164L14.6416 15.7506C14.8425 16.6121 13.9083 17.2911 13.151 16.834L9.51673 14.6405Z" fill="black"/>
</svg>
