<svg width="16" height="16" viewBox="0 0 16 16" fill="none" xmlns="http://www.w3.org/2000/svg">
<path fill-rule="evenodd" clip-rule="evenodd" d="M1.33203 8.88932C1.33203 5.20732 4.3167 2.22266 7.9987 2.22266C11.6807 2.22266 14.6654 5.20732 14.6654 8.88932C14.6654 12.5713 11.6807 15.556 7.9987 15.556C4.3167 15.556 1.33203 12.5713 1.33203 8.88932ZM7.9987 3.55599C6.58421 3.55599 5.22766 4.11789 4.22746 5.11809C3.22727 6.11828 2.66536 7.47483 2.66536 8.88932C2.66536 10.3038 3.22727 11.6604 4.22746 12.6606C5.22766 13.6608 6.58421 14.2227 7.9987 14.2227C9.41319 14.2227 10.7697 13.6608 11.7699 12.6606C12.7701 11.6604 13.332 10.3038 13.332 8.88932C13.332 7.47483 12.7701 6.11828 11.7699 5.11809C10.7697 4.11789 9.41319 3.55599 7.9987 3.55599Z" fill="#4A7358"/>
<path fill-rule="evenodd" clip-rule="evenodd" d="M8.66667 5.55632C8.66667 5.3795 8.59643 5.20993 8.4714 5.08491C8.34638 4.95989 8.17681 4.88965 8 4.88965C7.82319 4.88965 7.65362 4.95989 7.5286 5.08491C7.40357 5.20993 7.33333 5.3795 7.33333 5.55632V8.22298H4.66667C4.48986 8.22298 4.32029 8.29322 4.19526 8.41824C4.07024 8.54327 4 8.71284 4 8.88965C4 9.06646 4.07024 9.23603 4.19526 9.36105C4.32029 9.48608 4.48986 9.55632 4.66667 9.55632H7.33333V12.223C7.33333 12.3998 7.40357 12.5694 7.5286 12.6944C7.65362 12.8194 7.82319 12.8896 8 12.8896C8.17681 12.8896 8.34638 12.8194 8.4714 12.6944C8.59643 12.5694 8.66667 12.3998 8.66667 12.223V9.55632H11.3333C11.5101 9.55632 11.6797 9.48608 11.8047 9.36105C11.9298 9.23603 12 9.06646 12 8.88965C12 8.71284 11.9298 8.54327 11.8047 8.41824C11.6797 8.29322 11.5101 8.22298 11.3333 8.22298H8.66667V5.55632Z" fill="#4A7358"/>
</svg>
