<svg width="24" height="24" viewBox="0 0 24 24" fill="none" xmlns="http://www.w3.org/2000/svg">
<g opacity="0.8">
<path d="M4.8 8.15505C4.8 6.19111 5.55857 4.30761 6.90883 2.91889C8.25909 1.53017 10.0904 0.75 12 0.75C13.9096 0.75 15.7409 1.53017 17.0912 2.91889C18.4414 4.30761 19.2 6.19111 19.2 8.15505V12.5027L21 15.2796V19.2626H15.9501C15.7454 20.1824 15.2432 21.0036 14.5257 21.5917C13.8082 22.1798 12.9179 22.5 12.0004 22.5C11.083 22.5 10.1927 22.1798 9.47518 21.5917C8.75769 21.0036 8.25551 20.1824 8.0508 19.2626H3V15.2796L4.8 12.5027V8.15505ZM9.9372 19.2626C10.1121 19.6757 10.4005 20.0272 10.767 20.2742C11.1334 20.5211 11.5619 20.6526 12 20.6526C12.4381 20.6526 12.8666 20.5211 13.233 20.2742C13.5995 20.0272 13.8879 19.6757 14.0628 19.2626H9.9372ZM12 2.60126C10.5678 2.60126 9.19432 3.18639 8.18162 4.22793C7.16893 5.26947 6.6 6.6821 6.6 8.15505V13.0637L4.8 15.8406V17.4114H19.2V15.8406L17.4 13.0637V8.15505C17.4 6.6821 16.8311 5.26947 15.8184 4.22793C14.8057 3.18639 13.4322 2.60126 12 2.60126Z" fill="black"/>
<circle cx="18" cy="4" r="4" fill="#F63939"/>
</g>
</svg>
