<svg width="24" height="25" viewBox="0 0 24 25" fill="none" xmlns="http://www.w3.org/2000/svg">
<g opacity="0.5">
<path d="M12 3.5C17.523 3.5 22 7.977 22 13.5C22 19.023 17.523 23.5 12 23.5C6.477 23.5 2 19.023 2 13.5C2 7.977 6.477 3.5 12 3.5ZM12 5.5C9.87827 5.5 7.84344 6.34285 6.34315 7.84315C4.84285 9.34344 4 11.3783 4 13.5C4 15.6217 4.84285 17.6566 6.34315 19.1569C7.84344 20.6571 9.87827 21.5 12 21.5C14.1217 21.5 16.1566 20.6571 17.6569 19.1569C19.1571 17.6566 20 15.6217 20 13.5C20 11.3783 19.1571 9.34344 17.6569 7.84315C16.1566 6.34285 14.1217 5.5 12 5.5ZM12 17.5C12.2652 17.5 12.5196 17.6054 12.7071 17.7929C12.8946 17.9804 13 18.2348 13 18.5C13 18.7652 12.8946 19.0196 12.7071 19.2071C12.5196 19.3946 12.2652 19.5 12 19.5C11.7348 19.5 11.4804 19.3946 11.2929 19.2071C11.1054 19.0196 11 18.7652 11 18.5C11 18.2348 11.1054 17.9804 11.2929 17.7929C11.4804 17.6054 11.7348 17.5 12 17.5ZM12 8C12.8423 8.00003 13.6583 8.29335 14.3078 8.8296C14.9573 9.36585 15.3998 10.1115 15.5593 10.9386C15.7188 11.7656 15.5853 12.6224 15.1818 13.3617C14.7783 14.101 14.1299 14.6768 13.348 14.99C13.2322 15.0326 13.1278 15.1014 13.043 15.191C12.999 15.241 12.992 15.305 12.993 15.371L13 15.5C12.9997 15.7549 12.9021 16 12.7272 16.1854C12.5522 16.3707 12.313 16.4822 12.0586 16.4972C11.8042 16.5121 11.5536 16.4293 11.3582 16.2657C11.1627 16.1021 11.0371 15.8701 11.007 15.617L11 15.5V15.25C11 14.097 11.93 13.405 12.604 13.134C12.8783 13.0245 13.1176 12.8423 13.2962 12.607C13.4748 12.3717 13.5859 12.0922 13.6176 11.7986C13.6493 11.5049 13.6004 11.2081 13.4762 10.9401C13.352 10.6722 13.1571 10.4431 12.9125 10.2775C12.6679 10.1119 12.3829 10.0161 12.0879 10.0003C11.793 9.98448 11.4993 10.0493 11.2384 10.1879C10.9775 10.3264 10.7593 10.5334 10.6072 10.7866C10.4551 11.0398 10.3748 11.3296 10.375 11.625C10.375 11.8902 10.2696 12.1446 10.0821 12.3321C9.89457 12.5196 9.64022 12.625 9.375 12.625C9.10978 12.625 8.85543 12.5196 8.66789 12.3321C8.48036 12.1446 8.375 11.8902 8.375 11.625C8.375 10.6636 8.75692 9.74156 9.43674 9.06174C10.1166 8.38192 11.0386 8 12 8Z" fill="black"/>
</g>
</svg>
