<svg width="24" height="24" viewBox="0 0 24 24" fill="none" xmlns="http://www.w3.org/2000/svg">
<path d="M9.29104 20.1282C10.0096 20.8466 10.984 21.2501 12 21.2501C13.0161 21.2501 13.9905 20.8466 14.709 20.1282L20.1275 14.7092C20.8334 13.9881 21.2262 13.0176 21.2208 12.0085C21.2154 10.9994 20.8121 10.0332 20.0985 9.31974C19.3849 8.60625 18.4187 8.20305 17.4096 8.1977C16.4006 8.19236 15.4301 8.5853 14.709 9.2912L9.29104 14.7087C8.57148 15.4218 7.59878 15.821 6.58571 15.8188C5.57263 15.8166 4.60166 15.4133 3.88517 14.6971C3.16869 13.9808 2.76502 13.01 2.76246 11.9969C2.75991 10.9839 3.15868 10.011 3.87154 9.2912L9.29104 3.8717C10.0096 3.15317 10.9841 2.74951 12.0003 2.74951C13.0165 2.74951 13.991 3.15317 14.7095 3.8717" stroke="white" stroke-width="3" stroke-linecap="round" stroke-linejoin="round"/>
</svg>
