<svg width="24" height="24" viewBox="0 0 24 24" fill="none" xmlns="http://www.w3.org/2000/svg">
<path fill-rule="evenodd" clip-rule="evenodd" d="M18.7747 3.42997C19.0218 3.32596 19.2923 3.29008 19.558 3.32608C19.8237 3.36208 20.0749 3.46863 20.2854 3.63465C20.4959 3.80067 20.6581 4.02008 20.7551 4.27005C20.852 4.52002 20.8802 4.79141 20.8367 5.05597L18.5687 18.813C18.3487 20.14 16.8927 20.901 15.6757 20.24C14.6577 19.687 13.1457 18.835 11.7857 17.946C11.1057 17.501 9.0227 16.076 9.2787 15.062C9.4987 14.195 12.9987 10.937 14.9987 8.99997C15.7837 8.23897 15.4257 7.79997 14.4987 8.49997C12.1967 10.238 8.5007 12.881 7.2787 13.625C6.2007 14.281 5.6387 14.393 4.9667 14.281C3.7407 14.077 2.6037 13.761 1.6757 13.376C0.4217 12.856 0.4827 11.132 1.6747 10.63L18.7747 3.42997Z" fill="white"/>
</svg>
