<svg width="10" height="10" viewBox="0 0 10 10" fill="none" xmlns="http://www.w3.org/2000/svg">
<path fill-rule="evenodd" clip-rule="evenodd" d="M0.185617 4.47201C0.283568 4.31361 0.413993 4.17776 0.568275 4.07343C0.696121 3.97427 0.805026 3.85284 0.889738 3.71499C0.905978 3.54538 0.889876 3.37423 0.84229 3.21062C0.78092 3.03949 0.756182 2.85737 0.769682 2.67606C0.783182 2.49476 0.83462 2.31831 0.920658 2.15816C1.04735 2.02612 1.20037 1.92219 1.3698 1.85308C1.53923 1.78398 1.7213 1.75125 1.90419 1.75702C2.07203 1.75121 2.2374 1.71473 2.3921 1.64938C2.49965 1.52386 2.58352 1.37984 2.6396 1.22434C2.69072 1.04712 2.77866 0.882684 2.89767 0.741768C3.01668 0.600852 3.16409 0.486632 3.33025 0.406571C3.5074 0.375132 3.68918 0.381088 3.86389 0.424055C4.0386 0.467023 4.20241 0.546052 4.34477 0.65607C4.48873 0.754199 4.65029 0.823622 4.82056 0.86053C4.99078 0.823605 5.15229 0.754183 5.29621 0.65607C5.43861 0.546127 5.60243 0.467169 5.77714 0.424262C5.95185 0.381354 6.13361 0.375446 6.31073 0.406915C6.47695 0.486861 6.62443 0.600998 6.7435 0.74186C6.86257 0.882722 6.95057 1.04713 7.00173 1.22434C7.05769 1.37999 7.14172 1.52405 7.24964 1.64938C7.40418 1.71499 7.56949 1.75157 7.73727 1.75729C7.92015 1.75149 8.10222 1.78424 8.27161 1.85343C8.44099 1.92261 8.59394 2.02667 8.72046 2.15884C8.80651 2.31887 8.85796 2.49521 8.87146 2.6764C8.88496 2.8576 8.86022 3.03961 8.79883 3.21062C8.75124 3.37423 8.73514 3.54538 8.75138 3.71499C8.836 3.85271 8.94479 3.97402 9.0725 4.07309C9.22689 4.17742 9.35741 4.3133 9.45542 4.47177C9.55344 4.63025 9.61673 4.80771 9.64112 4.99244C9.61672 5.17708 9.55345 5.35445 9.4555 5.51286C9.35755 5.67127 9.22713 5.80712 9.07284 5.91144C8.945 6.01061 8.83609 6.13204 8.75138 6.26989C8.73514 6.4395 8.75124 6.61065 8.79883 6.77426C8.8602 6.94539 8.88494 7.12751 8.87144 7.30881C8.85794 7.49012 8.8065 7.66656 8.72046 7.82672C8.59377 7.95875 8.44075 8.06269 8.27132 8.13179C8.10189 8.2009 7.91982 8.23363 7.73693 8.22786C7.56909 8.23367 7.40372 8.27015 7.24902 8.3355C7.14147 8.46102 7.0576 8.60504 7.00152 8.76053C6.9504 8.93775 6.86246 9.10219 6.74345 9.24311C6.62444 9.38403 6.47703 9.49825 6.31087 9.57831C6.23698 9.60211 6.1598 9.61413 6.08217 9.61391C5.80042 9.58653 5.53012 9.48846 5.29635 9.32881C5.15239 9.23068 4.99083 9.16126 4.82056 9.12435C4.65034 9.16127 4.48883 9.23069 4.34491 9.32881C4.20253 9.43879 4.03871 9.51778 3.864 9.56069C3.68928 9.60359 3.50751 9.60948 3.33039 9.57796C3.16417 9.49802 3.01669 9.38388 2.89762 9.24302C2.77855 9.10216 2.69055 8.93774 2.63939 8.76053C2.58343 8.60489 2.4994 8.46083 2.39148 8.3355C2.23694 8.26989 2.07163 8.23331 1.90385 8.22759C1.72097 8.23339 1.5389 8.20063 1.36951 8.13145C1.20013 8.06227 1.04719 7.95821 0.920658 7.82603C0.834608 7.666 0.78316 7.48967 0.76966 7.30848C0.756159 7.12728 0.780905 6.94527 0.84229 6.77426C0.889876 6.61065 0.905978 6.4395 0.889738 6.26989C0.805124 6.13217 0.696335 6.01086 0.56862 5.91179C0.41423 5.80746 0.283713 5.67158 0.185699 5.5131C0.0876853 5.35463 0.0243903 5.17717 0 4.99244C0.0244004 4.8078 0.0876659 4.63042 0.185617 4.47201ZM4.47587 6.58028C4.38456 6.58028 4.297 6.54402 4.23243 6.47947L2.85513 5.10217C2.7924 5.03723 2.7577 4.95025 2.75848 4.85997C2.75927 4.76969 2.79548 4.68333 2.85932 4.61949C2.92316 4.55564 3.00952 4.51943 3.0998 4.51865C3.19008 4.51786 3.27706 4.55257 3.342 4.61529L4.47587 5.74916L6.29838 3.92664C6.36332 3.86392 6.4503 3.82921 6.54058 3.83C6.63086 3.83078 6.71722 3.86699 6.78107 3.93083C6.84491 3.99468 6.88112 4.08104 6.8819 4.17132C6.88269 4.2616 6.84798 4.34858 6.78526 4.41352L4.71931 6.47947C4.65473 6.54402 4.56717 6.58028 4.47587 6.58028Z" fill="black"/>
</svg>
