<svg width="24" height="24" viewBox="0 0 24 24" fill="none" xmlns="http://www.w3.org/2000/svg">
<g opacity="0.2">
<path d="M21.7099 20.2914L17.9999 16.6114C19.44 14.8158 20.1374 12.5367 19.9487 10.2427C19.76 7.94867 18.6996 5.81415 16.9854 4.27801C15.2713 2.74188 13.0337 1.92088 10.7328 1.98384C8.43194 2.0468 6.24263 2.98893 4.61505 4.61651C2.98747 6.24409 2.04534 8.43341 1.98237 10.7343C1.91941 13.0352 2.74041 15.2727 4.27655 16.9869C5.81269 18.701 7.94721 19.7615 10.2412 19.9502C12.5352 20.1389 14.8143 19.4415 16.6099 18.0014L20.2899 21.6814C20.3829 21.7751 20.4935 21.8495 20.6153 21.9003C20.7372 21.951 20.8679 21.9772 20.9999 21.9772C21.1319 21.9772 21.2626 21.951 21.3845 21.9003C21.5063 21.8495 21.6169 21.7751 21.7099 21.6814C21.8901 21.4949 21.9909 21.2457 21.9909 20.9864C21.9909 20.727 21.8901 20.4778 21.7099 20.2914ZM10.9999 18.0014C9.61544 18.0014 8.26206 17.5908 7.11091 16.8217C5.95977 16.0525 5.06256 14.9592 4.53275 13.6802C4.00293 12.4011 3.86431 10.9936 4.13441 9.63574C4.4045 8.27787 5.07119 7.03059 6.05016 6.05162C7.02912 5.07265 8.27641 4.40597 9.63427 4.13587C10.9921 3.86578 12.3996 4.0044 13.6787 4.53421C14.9578 5.06403 16.051 5.96123 16.8202 7.11238C17.5894 8.26352 17.9999 9.6169 17.9999 11.0014C17.9999 12.8579 17.2624 14.6384 15.9497 15.9511C14.6369 17.2639 12.8564 18.0014 10.9999 18.0014Z" fill="white"/>
</g>
</svg>
